<?xml version="1.0" encoding="UTF-8"?>
<svg id="Calque_1" data-name="Calque 1" xmlns="http://www.w3.org/2000/svg" viewBox="0 0 503.84 589.64">
  <defs>
    <style>
      .cls-1 {
        fill: #fff;
      }
    </style>
  </defs>
  <path class="cls-1" d="M497.46,341.25c-21.55,.79-31.6-23.2-49-31.45-7.57-3.57-16.41-4.55-24.83-3.1,2.14-2.29,4.24-4.6,6.29-6.89,15.52-17.25,30.17-33.53,64.99-34.15,.85-.02,1.54-.7,1.55-1.54,.03-.85-.62-1.57-1.48-1.63-2.59-.19-5.16-.28-7.63-.28-31.15,0-47.11,14.4-62.57,28.32-1.86,1.7-3.68,3.33-5.52,4.92,9.17-18.47,11.73-39.49,12.13-61.02,.98-.93,2.04-1.77,3.15-2.5,3.73-2.39,7.99-3.85,11.89-5.92,4.35-2.33,8.08-5.16,10.98-9.18,.54-.76,4.76-6.7,3.34-7.69-.78-.56-4.66,2.13-5.44,2.5-2.16,1.03-4.38,1.92-6.59,2.81-4.46,1.82-9.07,3.46-12.94,6.39-1.68,1.27-3.09,2.81-4.32,4.48l-.02-1.49c.75-1.02,1.3-1.77,1.38-1.85,8.23-8.35,21.44-8.91,30.27-16.67,3.76-3.31,5.98-7.81,6.62-12.76,.16-1.18,.2-2.35,.17-3.54-.03-.65-.03-2.16-1.04-2.07-.96,.08-1.35,2.27-1.76,2.95-6.22,10.47-20.68,7.92-29.92,13.67-2.32,1.44-4.32,3.39-5.98,5.59-.06-2.04-.11-4.08-.17-6.12-.62-21.8-1.23-44.11,2.75-64.63,1.37-.67,2.81-1.16,4.3-1.43,3.4-.58,6.91-.33,10.35-.64,3.84-.34,7.38-1.24,10.69-3.26,.64-.37,5.47-3.37,4.75-4.52-.4-.63-4.01,.13-4.68,.16-1.86,.07-3.73,.04-5.59,.01-3.76-.04-7.58-.26-11.25,.65-2.84,.71-5.38,2.15-7.52,4.12,.11-.42,.2-.84,.31-1.24,1.86-1.3,4.57-2.89,4.74-2.95,8.47-3.5,18.13,.12,26.85-2.78,3.71-1.23,6.68-3.81,8.64-7.15,.47-.81,.85-1.63,1.2-2.5,.19-.46,.64-1.57-.11-1.8-.71-.24-1.66,1.21-2.17,1.58-7.66,5.64-17.29-.61-25.68,.71-4.21,.67-8.16,3.05-11,6.34,1.01-3.01,2.12-5.97,3.43-8.86,.34-.77,.03-1.69-.73-2.06-.76-.39-1.68-.13-2.1,.62-2.22,3.85-4.16,7.82-5.92,11.85-1.6-5.59-5.2-10.66-10.05-13.67-9.23-5.75-23.71-3.19-29.92-13.67-.4-.69-.79-2.87-1.76-2.95-.99-.08-1.01,1.43-1.04,2.08-.03,1.18,.02,2.36,.17,3.54,.64,4.94,2.86,9.45,6.62,12.76,4.51,3.96,10.14,6.04,15.69,8.25-3.7,2.21-6.74,5.15-9.07,8.84-3.11,4.91-4.74,10.71-5.39,16.75-1.88-3.12-4.41-5.83-7.44-7.7-9.24-5.77-23.71-3.2-29.92-13.67-.4-.7-.81-2.87-1.76-2.95-1.01-.1-1.02,1.41-1.04,2.06-.05,1.2,0,2.36,.15,3.54,.65,4.94,2.86,9.45,6.62,12.76,8.83,7.75,22.03,8.33,30.27,16.67,.14,.13,1.79,2.33,3.23,4.49,.54,5.22,1.49,10.27,2.58,14.76,1.04,4.35,2.13,8.7,3.2,13.05,7.38,29.58,14.36,57.53,7.44,82.39-7.93,28.52-28.76,47.92-63.67,59.29-4.71,1.53-9.51,3.03-14.29,4.52-13.94,4.35-28.31,8.82-40.98,14.46,.85-8.4,.78-16.28-.22-24.03-.51-4.05-1.27-8.18-2.25-12.45,1.24-.04,2.47-.06,3.7,0,7.83,.4,15.48,2.67,23.23,3.7,8.65,1.13,16.93,.9,25.26-1.92,1.55-.53,13.73-4.76,12.72-7.64-.56-1.6-8.92-1.71-10.41-1.99-4.16-.75-8.28-1.73-12.4-2.71-8.27-1.99-16.61-4.36-25.2-4.13-6.28,.17-12.3,1.94-17.74,4.89,.82-.99,1.66-1.97,2.52-2.95,4.42-1.68,9.48-3.29,9.82-3.36,20.46-3.53,40.04,9.25,60.73,7.15,8.82-.88,16.65-5.11,22.67-11.56,1.43-1.54,2.72-3.18,3.87-4.92,.65-.96,2.17-3.15,.64-4.07-1.44-.87-4.27,1.88-5.56,2.46-19.75,8.7-37.94-9.88-57.16-11.1-2.72-.17-5.47-.01-8.17,.39,1.82-1.55,3.64-3.11,5.43-4.65,4.21-3.6,8.44-7.21,12.6-10.84,8.95-7.82,21.21-18.51,13.89-34.04-.36-.77-1.26-1.1-2.05-.79-.79,.34-1.17,1.23-.87,2.04,4.86,12.97-8.95,22.9-20.03,30.88-2.07,1.49-4.04,2.91-5.75,4.24-12.13,9.29-25.81,19.74-37.64,31.09-3.45-9.54-7.71-19-12.37-28.49,1.1-1.56,2.07-2.85,2.18-2.95,8.23-8.35,21.44-8.9,30.26-16.66,3.76-3.31,5.97-7.83,6.62-12.76,.15-1.18,.2-2.36,.17-3.54-.03-.66-.05-2.16-1.04-2.08-.96,.08-1.35,2.27-1.77,2.95-6.2,10.49-20.68,7.92-29.91,13.67-4.96,3.09-8.62,8.31-10.18,14.06-2.89-5.64-5.89-11.3-8.95-16.99,1.35-1.21,2.72-2.42,4.09-3.64,11.03-9.77,22.43-19.89,29.8-30.81,3.14-4.67,5.38-9.62,7.24-14.62,.82,0,1.63,.03,2.44,.11,4.41,.46,8.65,1.99,12.99,2.79,4.85,.9,9.54,1.03,14.31-.31,.9-.26,7.91-2.27,7.41-3.93-.27-.93-4.97-1.24-5.81-1.45-2.33-.54-4.61-1.23-6.91-1.91-4.6-1.37-9.24-2.95-14.09-3.09-2.8-.08-5.52,.47-8.11,1.41,.11-.36,.23-.7,.34-1.06,2.3-.7,4.58-1.29,4.77-1.32,11.64-1.36,22.3,6.43,34.04,5.88,5-.23,9.55-2.38,13.14-5.83,.84-.82,1.62-1.71,2.33-2.66,.39-.53,1.32-1.71,.48-2.27-.79-.55-2.47,.92-3.22,1.2-11.4,4.32-21.1-6.71-31.91-7.99-5.9-.7-12.15,1.2-17,4.85,4.88-14.51,11.19-27.97,32.18-37.86,.78-.37,1.12-1.27,.79-2.05-.33-.79-1.21-1.18-2.02-.88-25.9,9.49-33.02,25.65-39.88,41.28-.5,1.13-.99,2.25-1.49,3.34,.23-22.5-10.35-44.36-20.62-65.56-6.17-12.74-12.46-25.74-16.41-38.9,1.32-1.6,2.88-3,4.6-4.1,3.73-2.4,8-3.85,11.9-5.94,4.35-2.32,8.08-5.14,10.97-9.18,.54-.75,4.77-6.7,3.36-7.69-.79-.56-4.68,2.14-5.45,2.5-2.16,1.02-4.36,1.93-6.59,2.83-4.44,1.8-9.06,3.45-12.94,6.39-3.34,2.51-5.75,5.99-7.29,9.88-.14-.62-.28-1.23-.42-1.84,1.38-2.45,4.58-6.74,4.76-6.93,8.25-8.35,21.45-8.91,30.28-16.67,3.76-3.29,5.97-7.81,6.62-12.76,.14-1.16,.2-2.35,.15-3.52-.02-.65-.03-2.18-1.04-2.08-.95,.08-1.35,2.27-1.76,2.95-6.21,10.49-20.68,7.93-29.92,13.67-5.64,3.51-9.57,9.82-10.64,16.48-.36-2.92-.56-5.84-.56-8.78,0-.84-.67-1.54-1.52-1.58-.8-.1-1.57,.59-1.66,1.43-2.18,21.77,4.24,42.77,12.89,65.54-12.01-11.82-26.91-27.77-26.85-41.64,.02-5.2,2.1-9.71,6.34-13.73,.6-.59,.67-1.54,.12-2.18-.53-.64-1.49-.76-2.16-.26-2.93,2.14-5.21,4.61-6.79,7.38-.02-1.62-.12-3.23-.34-4.83-1.23-8.73-5.86-16.1-13.75-21.88-.67-.5-1.61-.39-2.16,.27-.53,.64-.48,1.58,.12,2.18,6.54,6.21,9.73,13.14,9.76,21.19,.11,22.14-24.62,47.56-43.11,65.58,11.47-29.86,20.62-57.61,21.18-85.74,1.41-2.47,4.48-6.59,4.66-6.76,8.25-8.36,21.44-8.9,30.26-16.67,3.76-3.31,5.98-7.83,6.62-12.75,.15-1.18,.22-2.36,.17-3.54-.02-.65-.03-2.16-1.04-2.06-.96,.08-1.35,2.25-1.76,2.94-6.22,10.49-20.68,7.92-29.92,13.67-4.3,2.69-7.6,7.01-9.41,11.86-.06-.76-.09-1.52-.17-2.28-.09-.84-.86-1.49-1.66-1.43-.85,.05-1.51,.75-1.51,1.59,0,20.44-6.14,40.72-14.43,60.69-.95-5.42-3.45-10.57-7.29-14.36-8.71-8.62-25.26-9.4-29.49-22.46-.28-.85-.17-3.36-1.19-3.68-1.09-.34-1.48,1.3-1.66,2.02-.34,1.29-.58,2.59-.7,3.93-.53,5.59,.79,11.11,4.1,15.68,7.77,10.72,22.14,14.62,29.13,25.85,.11,.15,1.07,2.33,2.02,4.69-.19,.42-.39,.84-.57,1.26-.99-2.88-2.43-5.58-4.41-7.94-3.52-4.16-8.19-7.13-12.63-10.22-2.22-1.54-4.43-3.07-6.54-4.74-.76-.61-4.37-4.54-5.36-4.12-1.8,.74,1.35,8.33,1.76,9.29,2.18,5.15,5.58,9.18,9.79,12.82,3.77,3.26,8.09,5.92,11.59,9.48,.87,.87,1.66,1.82,2.37,2.81-2.36,5.01-4.77,9.99-7.16,14.95-3.93,8.09-7.96,16.42-11.7,24.72-1.23-11.11-3.82-23.07-10.77-33.26-8.95-13.16-23.04-22.9-36.65-32.32-1.02-.73-2.19-1.48-3.43-2.28-4.46-2.89-9.68-6.29-11.62-10.5,1.12-2.25,4.9-7.32,5.09-7.52,8.24-8.35,21.44-8.9,30.27-16.66,3.76-3.31,5.97-7.83,6.62-12.76,.15-1.18,.2-2.36,.15-3.54-.02-.65-.03-2.16-1.04-2.08-.95,.08-1.35,2.27-1.75,2.95-6.22,10.49-20.68,7.93-29.93,13.67-6.1,3.81-10.22,10.86-10.86,18.13-.78-.24-1.61,.14-1.93,.9-3.95,9.54,3.9,15.75,9.09,19.85,2.49,1.97,5,3.92,7.52,5.86,4.76,3.68,9.68,7.49,14.29,11.36,11.96,10.09,19.39,23.4,22.61,40.63-9.9-8.33-25.11-12.27-39.88-16.1-2.81-.73-5.62-1.46-8.39-2.2-20.02-5.47-32.3-15.83-37.54-31.66-4.58-13.85-1.38-29.91,1.99-46.94,.5-2.52,1-5.03,1.48-7.55,1.56-8.22,2.32-19.61-2.95-27.11-2.67-3.82-6.62-6.18-11.7-7.01-.84-.15-1.61,.39-1.82,1.21-.19,.81,.29,1.63,1.1,1.88,4.15,1.24,7.01,3.5,8.76,6.9,4.52,8.78,.59,23.54-3.28,35.33-1.99-17.66-4.97-33.48-13.69-47.04-.45-.72-1.38-.95-2.13-.51-.73,.42-1.01,1.34-.62,2.1,7.38,14.48,7.74,32.44,8.08,49.81,.04,2.76,.12,5.56,.2,8.36-2.3-2.53-4.99-4.66-8.03-6.07-11.12-5.17-26.96-.32-35.35-11.2-.56-.71-1.29-3.11-2.38-3.06-1.13,.05-.95,1.74-.87,2.47,.11,1.32,.33,2.64,.67,3.93,1.4,5.44,4.49,10.19,9.15,13.36,10.94,7.47,25.78,6.29,36.14,14.49,.1,.08,.77,.78,1.66,1.73,.05,.54,.1,1.1,.15,1.66-1.55-1.63-3.28-3.09-5.26-4.24-4.72-2.73-10.13-3.95-15.35-5.36-2.6-.7-5.21-1.42-7.75-2.25-.92-.31-5.64-2.8-6.44-2.06-1.44,1.3,4.07,7.38,4.78,8.16,3.79,4.1,8.36,6.76,13.55,8.76,4.64,1.79,9.62,2.84,14.11,5,1.52,.73,2.92,1.66,4.25,2.69,1.08,4.69,2.55,9.25,4.6,13.53-.25-.2-.5-.42-.76-.62-8.81-7.21-17.94-14.67-34.32-14.67-2.25,0-4.63,.14-7.06,.43-.85,.11-1.46,.85-1.4,1.69,.06,.85,.82,1.48,1.63,1.48,19.59-.59,28.34,8.19,37.57,17.51,4.65,4.69,9.46,9.56,15.72,13.04,8.77,4.86,19.95,7.77,30.78,10.58,14.95,3.9,30.4,7.91,38.78,17.03,10.64,11.58,10.24,28.7,8.48,43.75-1.95,8.24-3.05,15.91-3.39,23.31-.39,2.66-.77,5.3-1.1,7.94-.94-2.05-1.85-4.15-2.8-6.29-9.61-21.86-19.54-44.4-52.56-58.79-5.08-6.83-14.31-10.59-22.62-9.2-10.72,1.82-19.87,13.32-31.48,9.57-.76-.25-2.5-1.63-3.28-1.05-.81,.6,.19,1.74,.61,2.25,.75,.9,1.57,1.76,2.47,2.54,3.75,3.28,8.39,5.19,13.39,5.19,11.76-.03,22.03-8.36,33.73-7.55,.14,.02,1.83,.36,3.74,.82,31.79,16.69,39.12,39.34,46.78,63.28,.58,1.76,1.13,3.53,1.73,5.3-8.31-10.57-22.16-16.99-35.41-16.16-19.22,1.23-37.43,19.81-57.16,11.09-1.29-.58-4.12-3.31-5.58-2.44-1.52,.9,0,3.1,.65,4.06,1.15,1.76,2.44,3.39,3.87,4.92,5.99,6.45,13.84,10.67,22.65,11.56,20.71,2.1,40.29-10.68,60.75-7.13,.47,.08,9.63,3.03,14.09,5.13,.38,.96,.75,1.92,1.15,2.89-6.16-3.98-13.24-6.42-20.65-6.6-8.59-.23-16.93,2.14-25.2,4.12-4.12,.99-8.23,1.97-12.4,2.72-1.49,.26-9.85,.37-10.41,1.99-1.03,2.89,11.15,7.12,12.72,7.64,8.31,2.81,16.59,3.06,25.26,1.92,7.76-1.02,15.4-3.31,23.23-3.7,3.96-.2,7.99,.19,11.79,1.34,1.44,2.75,3,5.47,4.78,8.11,10.99,16.3,28.06,31.43,44.56,46.07,10.66,9.45,21.66,19.22,30.84,29.14,6.12,10.79,12.79,21.02,20.42,31.24l1.26,1.69c.42,1.2,.79,2.39,1.13,3.62,11.12,39.85-19.52,152.77-46.92,191.03-5.05,7.06-10.77,15.04-16.06,23.02-.31,.5-.34,1.12-.08,1.63,.28,.51,.81,.84,1.38,.85l30.4,.34h.02c.52,0,.99-.23,1.29-.65,3.56-4.86,7.16-9.71,10.77-14.54,12.82-17.2,23.64-61.21,33.2-100.03,5.9-23.98,11.48-46.63,16.42-57.83,5.39-12.23,11.45-26.76,15.57-41.73,14.62-14.77,39.68-22.61,63.93-30.18,13.97-4.37,28.31-8.85,40.85-14.7,4.01,.34,7.95,1.48,11.61,3.14,7.13,3.27,13.38,8.2,20.21,12.02,7.63,4.26,15.41,7.1,24.17,7.55,1.65,.08,14.53,.67,14.65-2.39,.08-1.71-7.64-4.9-8.93-5.71-3.59-2.24-7.05-4.68-10.52-7.1-6.94-4.91-13.83-10.19-21.89-13.16-4.86-1.8-10.01-2.48-15.12-2.27,.73-.5,1.46-.99,2.16-1.51,4.15,.12,8.16,.41,8.45,.47,20.32,4.27,33.79,23.38,53.8,29.1,8.51,2.42,17.37,1.39,25.32-2.38,1.9-.9,3.7-1.94,5.42-3.14,.95-.65,3.18-2.13,2.1-3.54-1.04-1.36-4.67,.15-6.09,.19h0Zm-288.31-59.69c-7.02-22.85-6.4-43.53,1.87-63.08,3.11-7.35,6.63-14.78,10.02-21.97,1.8-3.79,3.59-7.58,5.35-11.37,1.58-3.48,3.53-7.73,4.32-12.15,.51-.19,1.01-.4,1.54-.54,2.89-.75,5.93-.81,8.89-1.34,3.28-.58,6.28-1.62,8.98-3.61,.5-.37,4.46-3.32,3.74-4.26-.39-.53-3.45,.41-4.03,.48-1.6,.2-3.21,.33-4.81,.44-3.25,.23-6.56,.34-9.67,1.41-1.59,.55-3.03,1.37-4.32,2.39-.02-.22-.03-.44-.06-.65,1.12-.85,2.16-1.59,2.26-1.63,7.04-3.65,15.64-1.26,22.95-4.41,3.11-1.35,5.48-3.79,6.91-6.84,.34-.73,.62-1.46,.85-2.24,.12-.42,.42-1.4-.25-1.56-.62-.15-1.34,1.18-1.74,1.54-6.18,5.45-14.96,.77-22.11,2.56-4.24,1.04-7.97,4.12-10.1,8.02-.9-2.04-2.3-4.02-4.44-5.84-.66-.56-1.62-.5-2.19,.13-.59,.62-.58,1.58,.03,2.19,7.16,7.23,.81,18.21-4.29,27.02-.96,1.68-1.88,3.27-2.66,4.73-10.36,19.2-21.08,39.06-23.72,59.82-2.16,16.95,2.37,33.09,8.34,48.19-1.1-.99-2.19-1.97-3.28-2.97-30.87-28.04-43.39-57.83-38.32-91.06,.81-5.37,2.18-10.62,3.99-15.8,.05-.03,.1-.1,.12-.11,1.87-1.35,4.03-2.28,6.25-2.87,4.08-1.07,8.39-1.15,12.55-1.88,4.65-.82,8.86-2.32,12.68-5.11,.73-.53,6.31-4.69,5.31-6.01-.54-.74-4.88,.58-5.68,.67-2.27,.3-4.55,.47-6.82,.64-4.58,.33-9.26,.47-13.64,1.99-2.87,.98-5.41,2.66-7.58,4.73,.28-.61,.55-1.23,.82-1.83,1.79-1.39,3.59-2.66,3.74-2.74,9.94-5.16,22.11-1.79,32.43-6.25,4.38-1.89,7.74-5.35,9.77-9.65,.48-1.02,.88-2.08,1.2-3.17,.17-.59,.6-1.97-.34-2.19-.89-.2-1.9,1.66-2.46,2.18-8.74,7.69-21.14,1.1-31.24,3.6-1.38,.36-2.71,.9-3.99,1.52,8.21-13.19,18.41-26.18,28.93-39.53,3.14-3.99,6.3-8,9.39-12.01,6.26-8.11,13.1-18.66,16.69-29.72,1.34,9.58,7.29,19.12,12.62,26.04,2.08,2.69,4.18,5.36,6.28,8.01,14.22,18.05,27.64,35.1,30.56,54.25,3.36,21.97-4.94,41.67-25.37,60.22-.73,.67-1.46,1.34-2.21,2l-.96-1.68c-7.8-13.47-17.49-30.22-6.31-41.5,.59-.6,.6-1.57,.03-2.21-.58-.62-1.55-.67-2.21-.12-14.65,12.55-6.99,29.24-1.4,41.4,1.49,3.25,3,6.48,4.52,9.73-15.49,13.7-31.46,27.83-37.72,43.98h0Zm40.83,64.57c-2.05-2.46-4.21-4.91-6.39-7.23-11.33-16.98-22.15-37.08-16.51-57.3,3.46-12.43,13.75-23.52,24.67-33.68,4.43,9.36,9.32,19.78,13.64,30,3.68,8.7,6.39,17.79,8.06,27.03-5.3,5.97-9.65,11.76-13.28,17.68-4.3,7.05-7.66,14.76-10.19,23.5h0Zm21.14,16.39c-2.42,1.77-4.65,3.62-6.67,5.53-.44-.9-.89-1.8-1.37-2.7,2.21-15.21,6.26-28.58,12.35-40.63,.26,12.18-1.2,24.87-4.32,37.8h0Zm136.33-228.31c2.05-4.49,5.17-7.97,9.4-10.57,3.57,1.62,6.93,3.54,9.73,6.37,.11,.11,1.27,1.66,2.5,3.42-7.27,20.65-9.55,43.46-10.97,68.22-8.3-21.11-18.61-49.95-10.66-67.44h0Z"/>
</svg>