<?xml version="1.0" encoding="utf-8"?>
<!-- Generator: Adobe Illustrator 16.0.0, SVG Export Plug-In . SVG Version: 6.00 Build 0)  -->
<!DOCTYPE svg PUBLIC "-//W3C//DTD SVG 1.1//EN" "http://www.w3.org/Graphics/SVG/1.1/DTD/svg11.dtd">
<svg version="1.1" id="Calque_1" xmlns="http://www.w3.org/2000/svg" xmlns:xlink="http://www.w3.org/1999/xlink" x="0px" y="0px"
	 width="612px" height="792px" viewBox="0 0 612 792" enable-background="new 0 0 612 792" xml:space="preserve">
<g>
	<g>
		<defs>
			<rect id="SVGID_1_" x="53" y="100.19" width="504.96" height="592.621"/>
		</defs>
		<clipPath id="SVGID_2_">
			<use xlink:href="#SVGID_1_"  overflow="visible"/>
		</clipPath>
		<path clip-path="url(#SVGID_2_)" d="M550.46,441.447c-21.549,0.792-31.602-23.196-49.002-31.446
			c-7.566-3.573-16.406-4.552-24.827-3.104c2.145-2.287,4.241-4.603,6.292-6.886c15.521-17.246,30.172-33.528,64.989-34.149
			c0.854-0.016,1.538-0.699,1.554-1.538c0.03-0.853-0.622-1.567-1.477-1.631c-2.595-0.187-5.158-0.28-7.628-0.28
			c-31.15,0-47.106,14.402-62.565,28.323c-1.864,1.696-3.682,3.325-5.516,4.925c9.167-18.471,11.73-39.492,12.134-61.025
			c0.979-0.934,2.036-1.773,3.154-2.501c3.729-2.395,7.986-3.853,11.886-5.921c4.35-2.331,8.079-5.156,10.983-9.18
			c0.544-0.763,4.755-6.698,3.341-7.692c-0.776-0.558-4.661,2.128-5.438,2.501c-2.16,1.027-4.382,1.924-6.588,2.812
			c-4.459,1.818-9.073,3.465-12.941,6.387c-1.678,1.274-3.092,2.812-4.319,4.475l-0.016-1.492c0.746-1.025,1.301-1.773,1.383-1.849
			c8.234-8.345,21.44-8.906,30.265-16.672c3.76-3.309,5.981-7.813,6.619-12.755c0.155-1.181,0.202-2.348,0.171-3.541
			c-0.031-0.652-0.031-2.16-1.041-2.068c-0.964,0.08-1.352,2.267-1.756,2.952c-6.215,10.471-20.679,7.925-29.923,13.674
			c-2.315,1.443-4.319,3.385-5.981,5.591c-0.062-2.035-0.109-4.084-0.171-6.122c-0.622-21.795-1.228-44.108,2.75-64.631
			c1.367-0.668,2.812-1.165,4.304-1.427c3.402-0.577,6.913-0.326,10.347-0.637c3.838-0.342,7.38-1.245,10.689-3.265
			c0.637-0.373,5.469-3.369,4.754-4.523c-0.404-0.635-4.009,0.128-4.677,0.16c-1.864,0.075-3.729,0.044-5.593,0.013
			c-3.76-0.044-7.582-0.264-11.249,0.655c-2.843,0.712-5.375,2.155-7.52,4.117c0.109-0.422,0.202-0.839,0.312-1.245
			c1.864-1.305,4.567-2.888,4.738-2.952c8.468-3.496,18.131,0.125,26.847-2.779c3.713-1.229,6.681-3.806,8.639-7.147
			c0.466-0.808,0.854-1.631,1.196-2.503c0.187-0.464,0.637-1.569-0.109-1.8c-0.714-0.235-1.662,1.211-2.175,1.583
			c-7.659,5.64-17.292-0.606-25.682,0.715c-4.21,0.668-8.156,3.047-11,6.341c1.01-3.014,2.125-5.966,3.434-8.858
			c0.342-0.775,0.031-1.693-0.73-2.064c-0.761-0.391-1.678-0.126-2.097,0.621c-2.222,3.853-4.164,7.815-5.92,11.853
			c-1.6-5.593-5.204-10.656-10.052-13.67c-9.229-5.749-23.709-3.187-29.923-13.674c-0.404-0.686-0.793-2.872-1.756-2.952
			c-0.994-0.076-1.01,1.431-1.041,2.083c-0.031,1.177,0.016,2.36,0.171,3.541c0.637,4.94,2.858,9.446,6.619,12.755
			c4.505,3.961,10.145,6.045,15.691,8.248c-3.698,2.208-6.743,5.145-9.073,8.842c-3.107,4.912-4.739,10.707-5.392,16.749
			c-1.88-3.121-4.412-5.826-7.441-7.704c-9.244-5.766-23.709-3.201-29.924-13.674c-0.403-0.699-0.808-2.874-1.755-2.95
			c-1.01-0.095-1.025,1.412-1.041,2.064c-0.047,1.196,0,2.361,0.155,3.542c0.652,4.94,2.858,9.446,6.618,12.755
			c8.825,7.753,22.031,8.33,30.265,16.669c0.141,0.128,1.787,2.333,3.232,4.492c0.543,5.222,1.491,10.27,2.579,14.76
			c1.04,4.35,2.128,8.702,3.2,13.052c7.38,29.58,14.355,57.529,7.441,82.388c-7.927,28.525-28.758,47.915-63.668,59.291
			c-4.707,1.534-9.508,3.026-14.293,4.518c-13.937,4.35-28.308,8.824-40.985,14.464c0.854-8.405,0.777-16.282-0.218-24.034
			c-0.513-4.052-1.273-8.184-2.252-12.445c1.242-0.042,2.47-0.058,3.697,0c7.83,0.404,15.475,2.673,23.227,3.698
			c8.654,1.134,16.935,0.901,25.263-1.923c1.554-0.532,13.734-4.758,12.724-7.644c-0.559-1.604-8.918-1.713-10.409-1.989
			c-4.163-0.749-8.28-1.729-12.397-2.707c-8.266-1.988-16.608-4.365-25.2-4.133c-6.276,0.171-12.305,1.942-17.743,4.895
			c0.824-0.994,1.663-1.974,2.518-2.952c4.424-1.678,9.477-3.294,9.818-3.356c20.462-3.526,40.038,9.248,60.732,7.147
			c8.824-0.882,16.654-5.111,22.667-11.56c1.43-1.538,2.72-3.185,3.869-4.923c0.652-0.963,2.175-3.154,0.637-4.072
			c-1.444-0.868-4.272,1.88-5.562,2.457c-19.747,8.699-37.94-9.883-57.159-11.097c-2.719-0.167-5.469-0.011-8.172,0.391
			c1.817-1.552,3.636-3.105,5.434-4.646c4.215-3.603,8.44-7.207,12.604-10.842c8.949-7.815,21.207-18.506,13.89-34.042
			c-0.357-0.774-1.259-1.101-2.051-0.79c-0.793,0.342-1.166,1.226-0.87,2.035c4.862,12.971-8.949,22.898-20.026,30.884
			c-2.066,1.492-4.04,2.907-5.749,4.244c-12.134,9.287-25.806,19.745-37.645,31.086c-3.449-9.537-7.706-18.999-12.367-28.491
			c1.104-1.556,2.066-2.845,2.176-2.952c8.234-8.345,21.439-8.904,30.265-16.657c3.76-3.309,5.966-7.83,6.618-12.755
			c0.155-1.181,0.202-2.362,0.171-3.541c-0.031-0.657-0.047-2.16-1.041-2.084c-0.963,0.08-1.352,2.268-1.771,2.952
			c-6.199,10.487-20.68,7.921-29.908,13.674c-4.956,3.09-8.622,8.312-10.176,14.059c-2.891-5.64-5.889-11.295-8.949-16.995
			c1.352-1.212,2.719-2.425,4.086-3.637c11.031-9.772,22.435-19.887,29.799-30.809c3.139-4.675,5.376-9.617,7.24-14.618
			c0.823,0,1.631,0.029,2.439,0.109c4.412,0.464,8.653,1.989,12.988,2.794c4.847,0.903,9.539,1.027,14.309-0.309
			c0.901-0.264,7.908-2.269,7.411-3.931c-0.265-0.934-4.972-1.245-5.811-1.447c-2.331-0.542-4.614-1.226-6.914-1.909
			c-4.599-1.369-9.244-2.952-14.092-3.092c-2.796-0.08-5.519,0.466-8.109,1.412c0.108-0.357,0.232-0.699,0.342-1.057
			c2.299-0.697,4.583-1.29,4.77-1.321c11.637-1.365,22.295,6.434,34.04,5.875c5.003-0.235,9.555-2.379,13.144-5.828
			c0.839-0.823,1.616-1.709,2.331-2.657c0.389-0.528,1.32-1.709,0.481-2.266c-0.792-0.546-2.471,0.915-3.216,1.196
			c-11.404,4.319-21.099-6.714-31.912-7.986c-5.903-0.701-12.149,1.196-16.997,4.847c4.879-14.513,11.187-27.967,32.177-37.864
			c0.776-0.373,1.118-1.272,0.792-2.051c-0.326-0.792-1.212-1.183-2.02-0.883c-25.899,9.491-33.016,25.65-39.882,41.28
			c-0.498,1.134-0.995,2.251-1.492,3.339c0.233-22.497-10.347-44.356-20.616-65.564c-6.168-12.74-12.461-25.744-16.407-38.901
			c1.321-1.603,2.875-2.999,4.6-4.102c3.729-2.395,8.001-3.854,11.9-5.937c4.351-2.315,8.079-5.143,10.969-9.18
			c0.544-0.748,4.77-6.698,3.355-7.692c-0.792-0.558-4.676,2.144-5.453,2.501c-2.159,1.025-4.365,1.926-6.587,2.828
			c-4.443,1.802-9.058,3.449-12.942,6.387c-3.34,2.515-5.748,5.995-7.286,9.881c-0.14-0.622-0.28-1.229-0.42-1.835
			c1.383-2.453,4.584-6.741,4.755-6.927c8.249-8.345,21.455-8.906,30.28-16.672c3.76-3.294,5.966-7.813,6.618-12.755
			c0.14-1.165,0.202-2.348,0.155-3.525c-0.016-0.653-0.031-2.175-1.041-2.084c-0.947,0.08-1.352,2.267-1.755,2.952
			c-6.215,10.487-20.68,7.925-29.924,13.674c-5.64,3.511-9.57,9.819-10.643,16.482c-0.357-2.92-0.559-5.839-0.559-8.778
			c0-0.839-0.668-1.536-1.521-1.584c-0.796-0.095-1.571,0.59-1.663,1.429c-2.177,21.767,4.24,42.771,12.894,65.535
			c-12.012-11.825-26.909-27.766-26.847-41.64c0.015-5.203,2.097-9.708,6.341-13.734c0.604-0.588,0.668-1.538,0.122-2.175
			c-0.528-0.637-1.491-0.76-2.16-0.262c-2.934,2.144-5.207,4.614-6.79,7.377c-0.015-1.615-0.122-3.229-0.342-4.832
			c-1.229-8.731-5.859-16.096-13.75-21.875c-0.668-0.497-1.614-0.386-2.16,0.267c-0.528,0.637-0.481,1.583,0.125,2.175
			c6.541,6.213,9.728,13.142,9.755,21.191c0.113,22.138-24.624,47.557-43.114,65.577c11.466-29.861,20.619-57.607,21.18-85.745
			c1.412-2.47,4.475-6.587,4.661-6.758c8.248-8.357,21.438-8.902,30.263-16.668c3.76-3.31,5.982-7.833,6.619-12.755
			c0.155-1.181,0.22-2.364,0.171-3.544c-0.016-0.652-0.031-2.16-1.041-2.064c-0.963,0.076-1.354,2.251-1.756,2.937
			c-6.216,10.487-20.677,7.921-29.925,13.67c-4.304,2.688-7.597,7.007-9.413,11.856c-0.06-0.764-0.093-1.524-0.171-2.284
			c-0.093-0.839-0.856-1.491-1.664-1.431c-0.854,0.046-1.507,0.748-1.507,1.586c0,20.444-6.137,40.719-14.433,60.686
			c-0.946-5.424-3.449-10.567-7.287-14.357c-8.714-8.623-25.26-9.398-29.488-22.464c-0.278-0.854-0.171-3.358-1.192-3.682
			c-1.089-0.344-1.476,1.303-1.663,2.02c-0.342,1.288-0.577,2.593-0.701,3.929c-0.528,5.593,0.792,11.109,4.102,15.676
			c7.768,10.722,22.137,14.62,29.129,25.853c0.112,0.153,1.074,2.331,2.021,4.692c-0.188,0.421-0.39,0.839-0.573,1.26
			c-0.995-2.875-2.426-5.58-4.415-7.941c-3.525-4.162-8.186-7.131-12.633-10.223c-2.22-1.538-4.426-3.074-6.539-4.737
			c-0.763-0.608-4.368-4.539-5.36-4.117c-1.802,0.744,1.352,8.326,1.757,9.287c2.175,5.145,5.576,9.184,9.788,12.819
			c3.773,3.263,8.092,5.919,11.59,9.478c0.866,0.872,1.662,1.817,2.373,2.812c-2.357,5.005-4.768,9.992-7.158,14.948
			c-3.935,8.093-7.955,16.422-11.701,24.718c-1.226-11.108-3.822-23.071-10.767-33.265c-8.949-13.157-23.041-22.899-36.652-32.316
			c-1.025-0.728-2.19-1.476-3.432-2.284c-4.459-2.888-9.681-6.292-11.621-10.501c1.117-2.254,4.896-7.317,5.094-7.52
			c8.238-8.345,21.442-8.902,30.269-16.657c3.758-3.309,5.966-7.829,6.617-12.755c0.155-1.183,0.204-2.359,0.155-3.541
			c-0.016-0.652-0.031-2.16-1.041-2.083c-0.948,0.08-1.354,2.27-1.754,2.95c-6.216,10.489-20.683,7.927-29.927,13.674
			c-6.104,3.806-10.221,10.86-10.858,18.133c-0.779-0.235-1.614,0.14-1.929,0.899c-3.946,9.542,3.902,15.754,9.093,19.855
			c2.486,1.973,4.999,3.917,7.518,5.857c4.756,3.684,9.679,7.491,14.293,11.357c11.963,10.085,19.39,23.398,22.607,40.628
			c-9.9-8.326-25.108-12.274-39.884-16.096c-2.812-0.729-5.624-1.46-8.39-2.204c-20.024-5.469-32.3-15.834-37.538-31.664
			c-4.581-13.845-1.378-29.91,1.989-46.937c0.498-2.517,0.995-5.034,1.476-7.549c1.556-8.221,2.315-19.607-2.95-27.113
			c-2.674-3.822-6.618-6.184-11.699-7.007c-0.839-0.155-1.614,0.389-1.818,1.212c-0.187,0.808,0.295,1.631,1.104,1.882
			c4.148,1.241,7.007,3.496,8.76,6.896c4.523,8.778,0.594,23.537-3.276,35.33c-1.988-17.663-4.971-33.481-13.686-47.042
			c-0.454-0.716-1.384-0.947-2.132-0.515c-0.728,0.42-1.006,1.338-0.621,2.098c7.383,14.482,7.741,32.442,8.083,49.812
			c0.044,2.764,0.123,5.56,0.198,8.356c-2.297-2.53-4.987-4.661-8.031-6.075c-11.124-5.173-26.958-0.324-35.345-11.2
			c-0.561-0.715-1.29-3.109-2.379-3.062c-1.132,0.049-0.946,1.742-0.866,2.47c0.107,1.321,0.327,2.641,0.668,3.931
			c1.396,5.44,4.486,10.194,9.147,13.363c10.938,7.473,25.777,6.292,36.137,14.494c0.095,0.08,0.766,0.779,1.663,1.727
			c0.048,0.543,0.097,1.101,0.155,1.662c-1.55-1.631-3.276-3.092-5.265-4.243c-4.721-2.734-10.132-3.946-15.35-5.358
			c-2.597-0.701-5.205-1.416-7.75-2.254c-0.919-0.311-5.64-2.796-6.436-2.064c-1.443,1.303,4.072,7.378,4.785,8.157
			c3.795,4.102,8.36,6.758,13.552,8.762c4.645,1.785,9.617,2.843,14.107,5.003c1.519,0.728,2.919,1.662,4.255,2.686
			c1.085,4.691,2.55,9.246,4.599,13.534c-0.247-0.202-0.497-0.421-0.761-0.624c-8.809-7.208-17.944-14.666-34.32-14.666
			c-2.254,0-4.63,0.14-7.055,0.435c-0.851,0.111-1.458,0.854-1.396,1.693c0.06,0.854,0.823,1.476,1.631,1.476
			c19.591-0.588,28.338,8.189,37.565,17.511c4.646,4.69,9.464,9.555,15.723,13.035c8.767,4.863,19.951,7.766,30.782,10.579
			c14.946,3.901,30.401,7.908,38.779,17.027c10.643,11.575,10.236,28.696,8.483,43.751c-1.946,8.236-3.047,15.909-3.389,23.306
			c-0.39,2.657-0.774,5.298-1.101,7.939c-0.936-2.053-1.851-4.148-2.8-6.292c-9.613-21.859-19.545-44.403-52.556-58.793
			c-5.084-6.832-14.311-10.594-22.623-9.196c-10.72,1.818-19.871,13.317-31.477,9.57c-0.759-0.247-2.501-1.631-3.278-1.054
			c-0.808,0.604,0.187,1.738,0.606,2.25c0.748,0.903,1.569,1.756,2.468,2.535c3.748,3.276,8.394,5.187,13.393,5.187
			c11.765-0.029,22.034-8.356,33.731-7.551c0.14,0.018,1.833,0.359,3.742,0.824c31.792,16.686,39.121,39.34,46.782,63.28
			c0.577,1.757,1.132,3.528,1.727,5.298c-8.314-10.565-22.159-16.995-35.412-16.156c-19.218,1.226-37.425,19.807-57.156,11.093
			c-1.29-0.577-4.117-3.309-5.578-2.443c-1.522,0.903,0,3.096,0.652,4.057c1.15,1.756,2.438,3.389,3.871,4.925
			c5.993,6.447,13.841,10.675,22.65,11.561c20.71,2.097,40.286-10.676,60.746-7.131c0.47,0.076,9.632,3.028,14.091,5.127
			c0.375,0.963,0.748,1.924,1.15,2.888c-6.164-3.977-13.237-6.415-20.646-6.603c-8.592-0.233-16.935,2.144-25.2,4.117
			c-4.117,0.995-8.234,1.973-12.398,2.721c-1.492,0.263-9.852,0.373-10.407,1.989c-1.027,2.888,11.151,7.116,12.722,7.644
			c8.312,2.812,16.593,3.059,25.26,1.925c7.756-1.025,15.4-3.31,23.227-3.698c3.962-0.2,7.987,0.186,11.794,1.336
			c1.443,2.752,2.999,5.469,4.783,8.11c10.986,16.298,28.061,31.432,44.559,46.065c10.66,9.446,21.66,19.219,30.84,29.135
			c6.121,10.794,12.788,21.017,20.417,31.24l1.26,1.693c0.418,1.2,0.791,2.393,1.134,3.62
			c11.124,39.854-19.518,152.769-46.922,191.035c-5.051,7.058-10.767,15.043-16.064,23.024c-0.309,0.497-0.342,1.123-0.078,1.632
			c0.281,0.513,0.806,0.839,1.383,0.854l30.402,0.342h0.016c0.515,0,0.994-0.229,1.293-0.652c3.556-4.859,7.159-9.711,10.767-14.542
			c12.816-17.199,23.645-61.214,33.2-100.035c5.903-23.977,11.481-46.629,16.422-57.826c5.391-12.231,11.45-26.758,15.567-41.735
			c14.62-14.771,39.68-22.605,63.933-30.183c13.967-4.37,28.307-8.845,40.845-14.702c4.009,0.343,7.955,1.477,11.605,3.139
			c7.132,3.267,13.377,8.203,20.213,12.025c7.629,4.257,15.412,7.1,24.175,7.551c1.647,0.081,14.526,0.668,14.651-2.389
			c0.077-1.713-7.645-4.898-8.934-5.706c-3.589-2.237-7.054-4.677-10.519-7.1c-6.944-4.91-13.827-10.192-21.891-13.16
			c-4.863-1.802-10.006-2.485-15.117-2.268c0.73-0.498,1.461-0.995,2.16-1.508c4.147,0.125,8.156,0.408,8.451,0.467
			c20.322,4.272,33.792,23.382,53.803,29.104c8.514,2.42,17.37,1.395,25.324-2.381c1.896-0.901,3.698-1.938,5.423-3.139
			c0.947-0.652,3.185-2.129,2.097-3.542C555.509,439.893,551.873,441.4,550.46,441.447L550.46,441.447z M262.151,381.756
			c-7.024-22.854-6.399-43.531,1.866-63.076c3.105-7.351,6.634-14.777,10.019-21.97c1.8-3.791,3.591-7.582,5.345-11.373
			c1.583-3.48,3.529-7.735,4.319-12.149c0.513-0.188,1.01-0.402,1.54-0.542c2.888-0.748,5.933-0.808,8.885-1.336
			c3.278-0.577,6.276-1.618,8.98-3.606c0.497-0.371,4.458-3.323,3.745-4.257c-0.389-0.528-3.45,0.406-4.026,0.481
			c-1.598,0.202-3.214,0.326-4.812,0.437c-3.249,0.231-6.558,0.342-9.666,1.412c-1.586,0.545-3.03,1.369-4.319,2.395
			c-0.016-0.219-0.031-0.437-0.064-0.653c1.123-0.854,2.16-1.586,2.255-1.633c7.038-3.651,15.643-1.259,22.947-4.413
			c3.107-1.352,5.484-3.789,6.914-6.836c0.342-0.728,0.621-1.46,0.854-2.235c0.124-0.421,0.419-1.4-0.249-1.556
			c-0.621-0.155-1.336,1.181-1.74,1.54c-6.184,5.452-14.959,0.775-22.108,2.562c-4.244,1.041-7.97,4.119-10.097,8.017
			c-0.903-2.035-2.299-4.024-4.444-5.842c-0.656-0.558-1.619-0.497-2.192,0.126c-0.592,0.622-0.575,1.583,0.033,2.189
			c7.158,7.226,0.808,18.208-4.292,27.018c-0.961,1.678-1.878,3.265-2.657,4.725c-10.361,19.203-21.079,39.057-23.72,59.815
			c-2.16,16.95,2.373,33.09,8.339,48.191c-1.101-0.994-2.187-1.973-3.276-2.967c-30.873-28.043-43.393-57.825-38.315-91.059
			c0.808-5.374,2.177-10.625,3.995-15.799c0.046-0.033,0.095-0.095,0.122-0.111c1.866-1.35,4.026-2.284,6.25-2.872
			c4.084-1.074,8.388-1.149,12.552-1.882c4.645-0.823,8.857-2.315,12.675-5.111c0.732-0.528,6.308-4.692,5.313-6.013
			c-0.54-0.744-4.876,0.577-5.682,0.668c-2.272,0.295-4.554,0.466-6.823,0.637c-4.581,0.326-9.259,0.468-13.641,1.989
			c-2.872,0.979-5.407,2.656-7.582,4.725c0.278-0.605,0.546-1.229,0.824-1.833c1.787-1.385,3.587-2.659,3.742-2.736
			c9.943-5.156,22.11-1.787,32.426-6.246c4.379-1.894,7.737-5.345,9.772-9.648c0.482-1.024,0.884-2.08,1.198-3.17
			c0.171-0.59,0.604-1.973-0.342-2.188c-0.887-0.202-1.897,1.662-2.458,2.175c-8.745,7.689-21.143,1.104-31.242,3.604
			c-1.385,0.357-2.705,0.899-3.993,1.523c8.206-13.192,18.411-26.179,28.927-39.527c3.142-3.993,6.296-8.001,9.386-12.007
			c6.261-8.11,13.097-18.662,16.686-29.721c1.336,9.584,7.287,19.125,12.616,26.039c2.08,2.688,4.179,5.358,6.277,8.015
			c14.216,18.051,27.639,35.099,30.56,54.253c3.356,21.967-4.94,41.671-25.371,60.221c-0.729,0.668-1.46,1.336-2.206,2.004
			l-0.963-1.678c-7.799-13.472-17.492-30.22-6.308-41.5c0.588-0.604,0.604-1.567,0.031-2.206c-0.577-0.622-1.554-0.668-2.206-0.125
			c-14.649,12.553-6.993,29.242-1.396,41.405c1.492,3.249,2.999,6.479,4.517,9.728C284.384,351.476,268.412,365.6,262.151,381.756
			L262.151,381.756z M302.982,446.329c-2.053-2.459-4.212-4.913-6.387-7.229c-11.328-16.978-22.155-37.085-16.515-57.298
			c3.464-12.429,13.75-23.521,24.672-33.683c4.428,9.355,9.321,19.78,13.641,30c3.683,8.703,6.386,17.79,8.063,27.033
			c-5.298,5.967-9.648,11.762-13.283,17.681C308.869,429.888,305.511,437.594,302.982,446.329L302.982,446.329z M324.126,462.716
			c-2.424,1.771-4.646,3.62-6.665,5.531c-0.436-0.901-0.886-1.802-1.367-2.699c2.206-15.214,6.261-28.575,12.351-40.632
			C328.709,437.097,327.248,449.79,324.126,462.716L324.126,462.716z M460.457,234.409c2.051-4.49,5.174-7.97,9.4-10.565
			c3.573,1.616,6.929,3.544,9.726,6.372c0.108,0.107,1.273,1.663,2.501,3.416c-7.271,20.648-9.555,43.458-10.969,68.221
			C462.819,280.74,452.503,251.905,460.457,234.409L460.457,234.409z M460.457,234.409"/>
	</g>
</g>
</svg>
